<svg width="400" height="184" viewBox="0 0 1079 184" fill="none" xmlns="http://www.w3.org/2000/svg">
<g style="mix-blend-mode:darken" filter="url(#filter0_i_12_19)">
<path d="M0.036557 3.26559H57.0434C68.9249 3.26559 79.0567 5.3001 87.4389 9.36911C95.8211 13.4381 102.25 19.4603 106.726 27.4355C111.202 35.4108 113.44 45.2578 113.44 56.9765C113.44 66.5794 112.138 74.7988 109.534 81.6347C106.929 88.3893 103.227 94.0452 98.4252 98.6025C93.6238 103.078 87.8865 106.659 81.2133 109.345L70.3491 115.814H24.0844L23.9623 86.1513H56.0668C60.9496 86.1513 64.978 85.0934 68.1518 82.9775C71.407 80.7802 73.8077 77.7285 75.3539 73.8222C76.9815 69.8346 77.7953 65.1959 77.7953 59.9062C77.7953 54.291 77.0629 49.4895 75.5981 45.5019C74.2146 41.4329 71.9767 38.3405 68.8842 36.2246C65.8731 34.0273 61.9262 32.9287 57.0434 32.9287H35.8032V181H0.036557V3.26559ZM80.725 181L48.1323 101.776L85.6078 101.654L118.933 179.291V181H80.725ZM240.271 151.459V181H163V151.459H240.271ZM174.109 3.26559V181H138.342V3.26559H174.109ZM229.895 75.2871V103.974H163V75.2871H229.895ZM240.027 3.26559V32.9287H163V3.26559H240.027ZM385.413 3.26559V181H350.867L295.08 69.7939V181H261.145V3.26559H295.203L351.477 115.692V3.26559H385.413ZM481.36 3.26559V181H445.837V3.26559H481.36ZM525.549 3.26559V32.9287H402.502V3.26559H525.549ZM595.984 35.0039L557.776 181H520.056L575.598 3.26559H599.158L595.984 35.0039ZM626.135 181L587.683 35.0039L584.143 3.26559H608.069L664.099 181H626.135ZM627.478 114.716V144.379H547.278V114.716H627.478ZM758.704 3.26559H794.348V125.336C794.348 139.008 791.825 150.157 786.78 158.783C781.815 167.328 774.939 173.594 766.15 177.582C757.361 181.488 747.31 183.441 735.998 183.441C724.605 183.441 714.473 181.488 705.603 177.582C696.732 173.594 689.815 167.328 684.851 158.783C679.968 150.157 677.527 139.008 677.527 125.336V3.26559H713.171V125.336C713.171 133.067 714.026 139.008 715.735 143.158C717.525 147.309 720.089 150.157 723.425 151.703C726.843 153.168 731.034 153.9 735.998 153.9C741.044 153.9 745.194 153.168 748.45 151.703C751.786 150.157 754.309 147.309 756.018 143.158C757.808 139.008 758.704 133.067 758.704 125.336V3.26559ZM892.493 3.26559V181H856.97V3.26559H892.493ZM936.682 3.26559V32.9287H813.635V3.26559H936.682ZM1078.89 78.3388V108.002C1078.89 120.534 1077.35 131.521 1074.26 140.961C1071.24 150.32 1066.93 158.173 1061.32 164.52C1055.78 170.787 1049.07 175.507 1041.17 178.681C1033.36 181.854 1024.69 183.441 1015.17 183.441C1005.65 183.441 996.944 181.854 989.05 178.681C981.238 175.507 974.483 170.787 968.786 164.52C963.171 158.173 958.817 150.32 955.725 140.961C952.633 131.521 951.086 120.534 951.086 108.002V78.3388C951.086 65.4808 952.592 54.2503 955.603 44.6474C958.614 34.9632 962.968 26.9065 968.664 20.4775C974.361 13.9671 981.116 9.08428 988.928 5.82907C996.741 2.49248 1005.41 0.824186 1014.93 0.824186C1024.45 0.824186 1033.12 2.49248 1040.93 5.82907C1048.74 9.08428 1055.5 13.9671 1061.19 20.4775C1066.89 26.9065 1071.24 34.9632 1074.26 44.6474C1077.35 54.2503 1078.89 65.4808 1078.89 78.3388ZM1043.37 108.002V78.0947C1043.37 69.6311 1042.76 62.429 1041.54 56.4882C1040.32 50.4661 1038.49 45.5426 1036.05 41.7177C1033.61 37.8929 1030.64 35.0853 1027.14 33.2949C1023.64 31.5045 1019.57 30.6093 1014.93 30.6093C1010.29 30.6093 1006.18 31.5045 1002.6 33.2949C999.101 35.0853 996.13 37.8929 993.689 41.7177C991.329 45.5426 989.538 50.4661 988.318 56.4882C987.178 62.429 986.609 69.6311 986.609 78.0947V108.002C986.609 116.14 987.219 123.098 988.44 128.876C989.661 134.654 991.492 139.374 993.933 143.036C996.374 146.698 999.345 149.424 1002.84 151.215C1006.42 152.924 1010.53 153.778 1015.17 153.778C1019.73 153.778 1023.76 152.924 1027.26 151.215C1030.84 149.424 1033.81 146.698 1036.17 143.036C1038.53 139.374 1040.32 134.654 1041.54 128.876C1042.76 123.098 1043.37 116.14 1043.37 108.002Z" fill="url(#paint0_linear_12_19)"/>
</g>
<defs>
<filter id="filter0_i_12_19" x="0.0365601" y="0.824184" width="1078.86" height="186.617" filterUnits="userSpaceOnUse" color-interpolation-filters="sRGB">
<feFlood flood-opacity="0" result="BackgroundImageFix"/>
<feBlend mode="normal" in="SourceGraphic" in2="BackgroundImageFix" result="shape"/>
<feColorMatrix in="SourceAlpha" type="matrix" values="0 0 0 0 0 0 0 0 0 0 0 0 0 0 0 0 0 0 127 0" result="hardAlpha"/>
<feOffset dy="4"/>
<feGaussianBlur stdDeviation="2"/>
<feComposite in2="hardAlpha" operator="arithmetic" k2="-1" k3="1"/>
<feColorMatrix type="matrix" values="0 0 0 0 0 0 0 0 0 0 0 0 0 0 0 0 0 0 0.25 0"/>
<feBlend mode="normal" in2="shape" result="effect1_innerShadow_12_19"/>
</filter>
<linearGradient id="paint0_linear_12_19" x1="-50.9996" y1="96" x2="1127" y2="96" gradientUnits="userSpaceOnUse">
<stop stop-color="#FA709A"/>
<stop offset="1" stop-color="#FEE140"/>
</linearGradient>
</defs>
</svg>
